<svg width="51" height="46" viewBox="0 0 51 46" fill="none" xmlns="http://www.w3.org/2000/svg">
<path d="M50.4869 22.9561C50.4869 24.5187 49.1847 25.7428 47.7089 25.7428H44.9309L44.9916 39.6502C44.9916 39.8846 44.9743 40.119 44.9482 40.3534V41.7511C44.9482 43.6697 43.3943 45.2236 41.4757 45.2236H40.0867C39.9912 45.2236 39.8957 45.2236 39.8002 45.2149C39.6787 45.2236 39.5571 45.2236 39.4356 45.2236H36.6142H34.5307C32.6121 45.2236 31.0582 43.6697 31.0582 41.7511V39.6676V34.1116C31.0582 32.575 29.8167 31.3335 28.2801 31.3335H22.7241C21.1875 31.3335 19.9461 32.575 19.9461 34.1116V39.6676V41.7511C19.9461 43.6697 18.3921 45.2236 16.4736 45.2236H14.3901H11.6207C11.4905 45.2236 11.3603 45.2149 11.2301 45.2063C11.1259 45.2149 11.0217 45.2236 10.9176 45.2236H9.52855C7.60998 45.2236 6.05603 43.6697 6.05603 41.7511V32.028C6.05603 31.9499 6.05603 31.8631 6.06471 31.785V25.7428H3.27801C1.71538 25.7428 0.5 24.5274 0.5 22.9561C0.5 22.1748 0.760439 21.4803 1.36813 20.8726L23.627 1.46989C24.2347 0.862204 24.9292 0.775391 25.5369 0.775391C26.1445 0.775391 26.839 0.949017 27.3599 1.38308L49.5319 20.8726C50.2265 21.4803 50.5737 22.1748 50.4869 22.9561Z" fill="#64748B"/>
</svg>
