<svg width="40" height="40" viewBox="0 0 40 40" fill="none" xmlns="http://www.w3.org/2000/svg">
<rect width="40" height="40" rx="8" fill="#702FFF"/>
<path d="M20.0278 30C18.1944 30 16.5093 29.5735 14.9722 28.7204C13.4537 27.8674 12.2407 26.6806 11.3333 25.1599C10.4444 23.6208 10 21.8962 10 19.9861C10 18.076 10.4444 16.3607 11.3333 14.8401C12.2407 13.3194 13.4537 12.1326 14.9722 11.2796C16.5093 10.4265 18.1944 10 20.0278 10C21.8611 10 23.537 10.4265 25.0556 11.2796C26.5926 12.1326 27.7963 13.3194 28.6667 14.8401C29.5556 16.3607 30 18.076 30 19.9861C30 21.8962 29.5556 23.6208 28.6667 25.1599C27.7778 26.6806 26.5741 27.8674 25.0556 28.7204C23.537 29.5735 21.8611 30 20.0278 30ZM20.0278 25.6606C21.5833 25.6606 22.8241 25.1414 23.75 24.1029C24.6944 23.0644 25.1667 21.6922 25.1667 19.9861C25.1667 18.2615 24.6944 16.8892 23.75 15.8693C22.8241 14.8308 21.5833 14.3115 20.0278 14.3115C18.4537 14.3115 17.1944 14.8215 16.25 15.8414C15.3241 16.8614 14.8611 18.2429 14.8611 19.9861C14.8611 21.7107 15.3241 23.0923 16.25 24.1307C17.1944 25.1507 18.4537 25.6606 20.0278 25.6606Z" fill="white"/>
</svg>
