<svg width="51" height="50" viewBox="0 0 51 50" fill="none" xmlns="http://www.w3.org/2000/svg">
<path d="M16.6028 2.40444C15.8509 0.588114 13.8686 -0.378641 11.9741 0.138915L3.38073 2.48256C1.68159 2.95129 0.5 4.49419 0.5 6.25193C0.5 30.411 20.089 50 44.2481 50C46.0058 50 47.5487 48.8184 48.0174 47.1193L50.3611 38.5259C50.8786 36.6315 49.9119 34.6491 48.0956 33.8972L38.721 29.9911C37.1292 29.3271 35.2836 29.786 34.1997 31.1239L30.2546 35.9381C23.3799 32.6863 17.8137 27.1201 14.5619 20.2455L19.3761 16.3101C20.714 15.2164 21.1729 13.3805 20.5089 11.7888L16.6028 2.41421V2.40444Z" fill="#64748B"/>
</svg>
