<svg width="51" height="50" viewBox="0 0 51 50" fill="none" xmlns="http://www.w3.org/2000/svg">
<path d="M49.1335 0.547135C50.1196 1.23059 50.6371 2.41198 50.4516 3.59338L44.2029 44.21C44.0564 45.157 43.4804 45.9869 42.6407 46.4556C41.801 46.9242 40.7954 46.9828 39.9069 46.6118L28.2296 41.7593L21.5416 48.9941C20.6726 49.9412 19.3057 50.2536 18.1048 49.785C16.9039 49.3163 16.1228 48.1544 16.1228 46.8657V38.7033C16.1228 38.3127 16.2692 37.9417 16.5329 37.6586L32.8966 19.801C33.4629 19.1859 33.4434 18.2388 32.8576 17.653C32.2718 17.0671 31.3247 17.0281 30.7096 17.5846L10.8504 35.2274L2.22917 30.9119C1.19423 30.3945 0.530308 29.3595 0.501017 28.2074C0.471726 27.0553 1.07707 25.9813 2.07296 25.4053L45.8139 0.410445C46.8586 -0.185135 48.1474 -0.126553 49.1335 0.547135Z" fill="#64748B"/>
</svg>
